<svg width="64" height="64" viewBox="0 0 64 64" fill="none" xmlns="http://www.w3.org/2000/svg">
<g clip-path="url(#clip0_206_5)">
<path d="M54.5212 22.2904C53.5796 21.7035 52.3414 21.9906 51.7548 22.9319C51.1682 23.8733 51.4553 25.1114 52.3963 25.698C54.5861 27.0636 55.8932 29.4194 55.8932 32.0001C55.8932 34.5808 54.5861 36.9366 52.3963 38.3022L19.4629 58.8369C17.1395 60.2855 14.3233 60.3568 11.9296 59.0287C9.53568 57.7002 8.10646 55.2724 8.10646 52.5348V11.4651C8.10646 8.72749 9.53568 6.29973 11.9296 4.97125C14.3233 3.64309 17.1395 3.71437 19.4629 5.16299L38.6346 17.117C39.5759 17.7033 40.814 17.4165 41.401 16.4756C41.9876 15.5346 41.7005 14.2961 40.7595 13.7095L21.5878 1.75577C18.0086 -0.475889 13.6701 -0.586652 9.98107 1.46029C6.29309 3.5069 4.09122 7.24708 4.09122 11.4651V52.5345C4.09122 56.7525 6.29309 60.4927 9.98141 62.5393C11.7382 63.5141 13.6419 63.9996 15.5416 63.9996C17.6301 63.9996 19.7135 63.4127 21.5878 62.2438L54.5212 41.7091C57.895 39.6053 59.9091 35.9759 59.9091 31.9998C59.9091 28.0237 57.895 24.3943 54.5212 22.2904Z" fill="white"/>
</g>
<defs>
<clipPath id="clip0_206_5">
<rect width="64" height="64" fill="white"/>
</clipPath>
</defs>
</svg>
